<svg xmlns="http://www.w3.org/2000/svg" xmlns:xlink="http://www.w3.org/1999/xlink" width="1024" zoomAndPan="magnify" viewBox="0 0 768 767.999994" height="1024" preserveAspectRatio="xMidYMid meet" version="1.2"><g id="e24a911edd"><path style=" stroke:none;fill-rule:evenodd;fill:#000000;fill-opacity:1;" d="M 371.25 66.464844 C 310.21875 70.785156 260.636719 85.898438 203.792969 117.515625 C 183.46875 128.820312 170.664062 137.125 151.597656 151.367188 C 137.570312 161.847656 128.730469 170.445312 125.625 176.640625 C 123.574219 180.726562 123.375 181.789062 123.375 188.625 C 123.375 195.007812 123.628906 196.605469 125.09375 199.347656 C 134.34375 216.671875 158.984375 221.855469 195.355469 214.132812 C 209.59375 211.109375 216.382812 209.402344 225 206.679688 C 230.679688 204.886719 235.378906 203.222656 258.375 194.859375 C 268.21875 191.277344 283.328125 186.097656 292.125 183.289062 C 296.664062 181.835938 301.726562 180.179688 303.375 179.601562 C 314.726562 175.632812 348.527344 168.417969 366.375 166.15625 C 434.539062 157.523438 504.644531 169.585938 568.875 201.003906 C 587.476562 210.101562 609.28125 223.582031 628.640625 237.957031 C 639.554688 246.0625 641.523438 247.722656 655.628906 260.75 C 675.097656 278.726562 694.523438 300.824219 716.976562 330.53125 C 719.222656 333.503906 721.167969 335.832031 721.300781 335.699219 C 721.847656 335.152344 715.410156 313.105469 710.113281 297.375 C 703.144531 276.691406 693.105469 253.703125 683.414062 236.25 C 677.84375 226.21875 678.105469 226.636719 668.113281 211.5 C 658.832031 197.441406 654.996094 192.410156 643.511719 179.25 C 589.222656 117.019531 512.011719 77.265625 427.125 67.835938 C 417.128906 66.726562 380.320312 65.824219 371.25 66.464844 M 370.125 233.648438 C 328.949219 237.332031 290.570312 247.523438 243 267.398438 C 237.429688 269.726562 231.523438 272.109375 229.875 272.695312 C 228.226562 273.28125 226.199219 274.082031 225.375 274.476562 C 224.550781 274.867188 220.667969 276.410156 216.75 277.898438 C 212.832031 279.386719 207.601562 281.398438 205.125 282.375 C 170.300781 296.070312 134.203125 301.925781 110.136719 297.785156 C 84.320312 293.339844 73.820312 281.203125 72.269531 254.011719 C 71.804688 245.828125 71.695312 245.339844 70.832031 247.636719 C 70.316406 249.007812 68.667969 253.332031 67.167969 257.25 C 54.902344 289.253906 47.796875 324.648438 47.742188 354 C 47.71875 366.1875 47.980469 369.859375 49.316406 376.023438 C 51.203125 384.746094 54.859375 392.800781 59.0625 397.5 C 65.089844 404.234375 77.253906 409.707031 89.25 411.078125 C 96.257812 411.875 110.023438 411.46875 117 410.25 C 148.089844 404.828125 170.316406 396.710938 205.5 377.921875 C 239.335938 359.855469 277.59375 343.089844 298.5 337.160156 C 320.734375 330.855469 333.203125 328.085938 349.875 325.746094 C 363.882812 323.777344 403.160156 323.789062 415.125 325.761719 C 464.332031 333.878906 504.03125 352.597656 534.648438 382.105469 C 563.507812 409.921875 576.84375 441.972656 573.757812 476.113281 C 572.820312 486.472656 571.796875 491.589844 568.847656 500.65625 C 557.03125 536.96875 524.625 568.710938 480.074219 587.609375 C 444.910156 602.527344 410.761719 608.160156 373.417969 605.203125 C 337.488281 602.359375 302.335938 590.835938 269.25 571.058594 C 258.40625 564.574219 249.425781 560.539062 240.742188 558.253906 C 233.539062 556.355469 231.703125 556.179688 219 556.152344 C 207.25 556.128906 203.964844 556.386719 197.554688 557.820312 C 170.734375 563.835938 151.042969 577.753906 140.570312 598.105469 C 136.746094 605.539062 134.933594 613.945312 136.515625 616.902344 C 137.925781 619.535156 157.046875 638.097656 166.386719 645.902344 C 190.84375 666.332031 219.296875 683.203125 247.875 694.210938 C 251.585938 695.640625 255.300781 697.125 256.125 697.507812 C 258.648438 698.6875 277.445312 704.714844 285 706.765625 C 304.859375 712.160156 326.058594 716.058594 350.625 718.828125 C 369.640625 720.972656 400.824219 720.808594 422.25 718.453125 C 444.789062 715.972656 476.644531 708.335938 494.25 701.1875 C 496.105469 700.433594 500.664062 698.648438 504.375 697.21875 C 513.5 693.707031 526.113281 687.953125 534.75 683.363281 C 538.667969 681.28125 543.226562 678.890625 544.875 678.058594 C 546.523438 677.222656 548.550781 676.117188 549.375 675.601562 C 550.199219 675.085938 552.054688 673.945312 553.5 673.070312 C 570.617188 662.695312 591.875 647.148438 606 634.679688 C 621.976562 620.574219 643.023438 598.34375 654.09375 583.875 C 659.304688 577.0625 671.257812 559.160156 675.25 552.183594 C 683.46875 537.820312 693.449219 516.546875 697.320312 505.125 C 703.070312 488.160156 702.207031 474.3125 693.832031 449.304688 C 678.730469 404.207031 651.328125 359.808594 617.625 325.84375 C 590.085938 298.089844 555.460938 275.34375 512.625 256.871094 C 487.691406 246.117188 450.015625 236.660156 421.5 233.996094 C 406.925781 232.632812 383.253906 232.472656 370.125 233.648438 "/></g></svg>